<?xml version="1.0" encoding="UTF-8" standalone="no"?>
<!-- Created with Inkscape (http://www.inkscape.org/) -->

<svg
   width="210mm"
   height="297mm"
   viewBox="0 0 210 297"
   version="1.1"
   id="svg5"
   inkscape:export-filename="растровый.png"
   inkscape:export-xdpi="96"
   inkscape:export-ydpi="96"
   inkscape:version="1.2.2 (732a01da63, 2022-12-09)"
   sodipodi:docname="freeform.svg"
   xmlns:inkscape="http://www.inkscape.org/namespaces/inkscape"
   xmlns:sodipodi="http://sodipodi.sourceforge.net/DTD/sodipodi-0.dtd"
   xmlns="http://www.w3.org/2000/svg"
   xmlns:svg="http://www.w3.org/2000/svg">
  <sodipodi:namedview
     id="namedview7"
     pagecolor="#ffffff"
     bordercolor="#000000"
     borderopacity="0.25"
     inkscape:showpageshadow="2"
     inkscape:pageopacity="0.0"
     inkscape:pagecheckerboard="0"
     inkscape:deskcolor="#d1d1d1"
     inkscape:document-units="mm"
     showgrid="false"
     inkscape:zoom="0.914906"
     inkscape:cx="78.150105"
     inkscape:cy="561.25984"
     inkscape:window-width="2560"
     inkscape:window-height="1351"
     inkscape:window-x="-9"
     inkscape:window-y="-9"
     inkscape:window-maximized="1"
     inkscape:current-layer="layer1" />
  <defs
     id="defs2">
    <inkscape:path-effect
       effect="powerstroke"
       id="path-effect3701"
       is_visible="true"
       lpeversion="1"
       offset_points="0,4.9921382"
       not_jump="false"
       sort_points="true"
       interpolator_type="CubicBezierJohan"
       interpolator_beta="0.2"
       start_linecap_type="zerowidth"
       linejoin_type="extrp_arc"
       miter_limit="4"
       scale_width="1"
       end_linecap_type="zerowidth" />
    <inkscape:path-effect
       effect="fill_between_many"
       method="bsplinespiro"
       linkedpaths="#path3699,0,1"
       id="path-effect3703" />
  </defs>
  <g
     inkscape:label="Слой 1"
     inkscape:groupmode="layer"
     id="layer1">
    <path
       inkscape:original-d="M 0,0"
       inkscape:path-effect="#path-effect3703"
       d="M 29.497565,71.430379 C 37.342852,51.912167 48.706193,35.099754 72.008764,33.546251 95.487915,31.980973 107.07102,52.79427 124.64167,63.043815 c 11.09607,6.472709 23.68331,-3.181109 35.5706,-3.181109 28.49856,0 24.64722,35.103845 5.20545,44.824734 C 117.16078,128.81591 125.15447,99.80939 81.841285,94.854916 70.591974,93.568139 43.964059,109.31681 33.546251,105.84421 20.132159,101.37284 27.09931,78.625146 29.497565,71.430379 Z"
       id="path3705"
       style="stroke:#a58253;stroke-opacity:1;fill:#ffffff;fill-opacity:0"
       class="UnoptimicedTransforms"
       transform="translate(-4.0486855,10.98929)" />
    <path
       style="fill:#5f5f5f;fill-opacity:1;fill-rule:nonzero;stroke:#a0753c;stroke-width:0.3;stroke-dasharray:none;stroke-dashoffset:0;stroke-opacity:1"
       d="m 34.129533,73.292185 c 1.700958,-4.231798 3.792973,-8.885476 6.356195,-13.283097 2.217174,-3.80392 4.848024,-7.52635 8.027559,-10.754396 2.859709,-2.903341 6.217248,-5.464445 10.249975,-7.360849 3.726975,-1.752623 8.173234,-3.006222 13.577574,-3.366511 2.515209,-0.16768 4.874288,-0.04048 7.117564,0.338855 2.185071,0.369492 4.282311,0.981858 6.332063,1.813363 3.991367,1.619143 7.754523,4.045693 11.671665,7.114628 3.917002,3.06883 7.345902,6.238503 11.593162,9.884425 3.90509,3.352198 8.23205,6.854602 13.07096,9.677303 1.79628,1.047829 3.64774,1.784229 5.53718,2.254149 1.86361,0.463495 3.71731,0.656295 5.5368,0.659516 3.55389,0.0063 7.01838,-0.713159 10.21565,-1.565288 3.05041,-0.812988 6.01566,-1.796635 9.06607,-2.609624 2.8557,-0.758898 5.38971,-1.239813 7.73031,-1.239815 3.04725,0 5.49358,0.468278 7.43491,1.203647 1.92415,0.728864 3.40993,1.740659 4.55362,2.9186 1.14651,1.180852 2.0226,2.604872 2.62651,4.23736 0.60644,1.639311 0.93995,3.496266 0.9739,5.499851 0.0684,4.037199 -1.08576,8.461091 -3.3264,12.399864 -2.24388,3.94448 -5.45304,7.189872 -9.28963,9.108174 -5.89831,2.94915 -10.82942,5.03111 -15.02676,6.44104 -4.21318,1.41526 -7.63607,2.13594 -10.50865,2.39109 -2.86461,0.25443 -5.23494,0.0508 -7.34474,-0.43385 -2.13773,-0.49103 -4.14192,-1.30144 -6.24777,-2.38355 -2.16673,-1.1134 -4.31765,-2.44608 -6.86754,-3.99698 -2.52832,-1.53778 -5.33648,-3.218344 -8.57553,-4.833254 C 101.9435,94.081 93.759025,91.193463 82.408639,89.895122 c -2.049291,-0.23441 -4.204371,-0.05888 -6.25657,0.279244 -2.109246,0.347521 -4.329604,0.905059 -6.539896,1.55194 -4.441629,1.29992 -9.460289,3.153918 -13.90813,4.741231 -4.835584,1.725689 -9.163391,3.200095 -12.935945,4.082783 -1.924758,0.45035 -3.550025,0.7078 -4.890275,0.78127 -1.397932,0.0766 -2.26389,-0.0603 -2.752919,-0.22334 -1.001781,-0.33393 -1.695639,-0.79595 -2.212884,-1.301511 -0.547818,-0.535441 -1.011719,-1.233409 -1.385604,-2.132012 -0.393682,-0.946182 -0.673456,-2.083358 -0.832987,-3.391496 -0.166177,-1.362632 -0.193573,-2.8411 -0.115507,-4.370114 0.169018,-3.310417 0.823798,-6.715761 1.505179,-9.520611 0.378751,-1.559102 0.77773,-2.98224 1.133236,-4.173162 0.38758,-1.29837 0.749718,-2.407907 1.017186,-3.210313 z m -9.367926,-3.440458 c -0.286133,0.858397 -0.683811,2.076035 -1.112379,3.511708 -0.392533,1.31496 -0.839789,2.908526 -1.268224,4.672146 -0.755377,3.109451 -1.560885,7.187077 -1.77437,11.368437 -0.09957,1.950157 -0.076,4.021952 0.175946,6.087868 0.240526,1.972289 0.70073,4.035682 1.525642,6.018294 0.799053,1.92046 1.967042,3.81624 3.624971,5.43671 1.623046,1.58637 3.632253,2.83256 6.034404,3.63327 2.080898,0.69364 4.307882,0.83854 6.456742,0.72074 2.113653,-0.11587 4.349207,-0.49792 6.618419,-1.02886 4.391458,-1.0275 9.208873,-2.68516 14.017108,-4.40109 4.640941,-1.65622 9.275232,-3.3678 13.35672,-4.56231 1.996035,-0.58418 3.793944,-1.02502 5.358598,-1.28281 1.57192,-0.258994 2.718602,-0.300358 3.498757,-0.211119 10.123505,1.157999 17.188942,3.687349 22.885319,6.527419 2.83994,1.41592 5.34685,2.91064 7.84208,4.42829 2.40819,1.46472 4.9282,3.02933 7.49258,4.34706 2.59895,1.3355 5.3996,2.50441 8.5759,3.23401 3.17155,0.72851 6.59606,0.99159 10.46326,0.6481 3.8232,-0.33957 8.02786,-1.26708 12.80459,-2.87163 4.75252,-1.59643 10.12305,-3.88064 16.31254,-6.97539 5.85896,-2.92948 10.41847,-7.67946 13.50294,-13.101586 3.05396,-5.368508 4.73192,-11.542652 4.63089,-17.505807 -0.0507,-2.993106 -0.55123,-5.979609 -1.59267,-8.794814 -1.04547,-2.826109 -2.63313,-5.468472 -4.82724,-7.72829 -2.20303,-2.269011 -4.94156,-4.073659 -8.18015,-5.300432 -3.23554,-1.225614 -6.90496,-1.851073 -10.97171,-1.851073 -3.62332,2e-6 -7.13463,0.734969 -10.29462,1.574731 -2.98592,0.793502 -6.08709,1.817969 -9.07301,2.61147 -2.88783,0.76966 -5.36653,1.232542 -7.62672,1.228541 -1.12311,-0.002 -2.16361,-0.120352 -3.14471,-0.364359 -0.98699,-0.245474 -1.95386,-0.627907 -2.91614,-1.189238 -4.03032,-2.351022 -7.80062,-5.368765 -11.59853,-8.628963 -3.90468,-3.35185 -7.79415,-6.920759 -11.93886,-10.16798 -4.316714,-3.381987 -8.902369,-6.408459 -14.076041,-8.507217 -2.674897,-1.085101 -5.471102,-1.907139 -8.420545,-2.405886 -3.029859,-0.512345 -6.170964,-0.67486 -9.446402,-0.456497 -6.617587,0.441172 -12.282661,1.998915 -17.162229,4.293548 -5.262713,2.474809 -9.55646,5.77748 -13.114372,9.389675 -3.92308,3.982936 -7.035059,8.434729 -9.540326,12.732918 -2.896788,4.969908 -5.193822,10.1082 -6.994168,14.587262 z"
       id="path3699"
       inkscape:path-effect="#path-effect3701"
       inkscape:original-d="M 29.497565,71.430379 C 37.342852,51.912167 48.706193,35.099754 72.008764,33.546251 95.487915,31.980973 107.07102,52.79427 124.64167,63.043815 c 11.09607,6.472709 23.68331,-3.181109 35.5706,-3.181109 28.49856,0 24.64722,35.103845 5.20545,44.824734 C 117.16078,128.81591 125.15447,99.80939 81.841285,94.854916 70.591974,93.568139 43.964059,109.31681 33.546251,105.84421 20.132159,101.37284 27.09931,78.625146 29.497565,71.430379 Z"
       inkscape:linked-fill="path3705"
       class="UnoptimicedTransforms"
       transform="translate(-4.0486855,10.98929)"
       sodipodi:nodetypes="cssssssc" />
  </g>
</svg>
